<?xml version="1.0" encoding="utf-8"?>
<!-- Generator: Adobe Illustrator 23.0.6, SVG Export Plug-In . SVG Version: 6.00 Build 0)  -->
<svg version="1.1" id="Layer_1" xmlns="http://www.w3.org/2000/svg" xmlns:xlink="http://www.w3.org/1999/xlink" x="0px" y="0px"
	 viewBox="0 0 800 285.4" style="enable-background:new 0 0 800 285.4;" xml:space="preserve">
<style type="text/css">
	.st0{fill:none;}
	.st1{fill:#FFFFFF;}
</style>
<path class="st0" d="M41-111.4h718c22.7,0,41,18.4,41,41v430.8c0,22.7-18.4,41-41,41H41c-22.7,0-41-18.4-41-41V-70.4
	C0-93,18.4-111.4,41-111.4z"/>
<path class="st1" d="M0.3,130.3h38.4l8.7-20h19.4l8.6,20H151V115l6.7,15.4h39.2l6.7-15.6v15.5h187.8l-0.1-32.8h3.6
	c2.5,0.1,3.3,0.3,3.3,4.3v28.5h97.1v-7.6c7.8,4,20,7.6,36,7.6h40.9l8.7-20h19.4l8.6,20h78.7v-19l11.9,19h63.1V4.7h-62.4v14.8
	l-8.7-14.8h-64.1v14.8l-8-14.8h-86.5c-14.5,0-27.2,1.9-37.5,7.3V4.7h-59.7V12c-6.5-5.6-15.5-7.3-25.4-7.3H192l-14.6,32.5l-15-32.5
	H93.6v14.8L86,4.7H27.5L0.3,64.4V130.3L0.3,130.3L0.3,130.3z M242.7,112.2h-23l-0.1-70.6L187,112.2h-19.7l-32.7-70.6v70.6H88.8
	l-8.6-20.1H33.4l-8.7,20.1H0.3l40.2-90.1h33.4l38.2,85.3V22.1h36.7l29.4,61.1l27-61.1h37.4L242.7,112.2L242.7,112.2z M72.5,73.4
	L57.1,37.5L41.8,73.4H72.5z M334.4,112.2h-75.1V22.1h75.1v18.8h-52.6v16.2h51.3v18.5h-51.3v18h52.6V112.2L334.4,112.2z M440.2,46.4
	c0,14.4-10,21.8-15.8,24c4.9,1.8,9.1,5,11.1,7.6c3.2,4.5,3.7,8.5,3.7,16.5v17.7h-22.7l-0.1-11.4c0-5.4,0.5-13.2-3.5-17.6
	c-3.3-3.2-8.3-3.9-16.4-3.9h-24.1v32.8h-22.5V22h51.7c11.5,0,19.9,0.3,27.2,4.3C435.9,30.4,440.2,36.3,440.2,46.4L440.2,46.4z
	 M411.7,59.7c-3.1,1.8-6.7,1.9-11.1,1.9h-27.3v-20H401c3.9,0,8,0.2,10.7,1.6c2.9,1.3,4.7,4.1,4.7,8
	C416.4,55.1,414.7,58.3,411.7,59.7z M476.2,112.2h-22.9V22.1h22.9V112.2z M742.4,112.2h-31.8L668,44.6v67.6h-45.8l-8.7-20.1h-46.7
	l-8.5,20.1H532c-10.9,0-24.8-2.3-32.6-10c-7.9-7.6-12-18-12-34.4c0-13.4,2.5-25.6,12.1-35.2c7.3-7.2,18.6-10.5,34.1-10.5h21.8v19.3
	h-21.3c-8.2,0-12.8,1.2-17.3,5.3c-3.8,3.8-6.5,11-6.5,20.4c0,9.7,2,16.6,6.2,21.2c3.5,3.6,9.7,4.6,15.7,4.6h10.1L574,22.1h33.7
	l38.1,85.2V22.1H680l39.5,62.7V22.1h23L742.4,112.2L742.4,112.2z M605.8,73.4l-15.6-35.9l-15.5,35.9H605.8z M799.7,256.1
	c-5.5,7.6-16.1,11.5-30.5,11.5h-43.4v-19.3H769c4.3,0,7.3-0.5,9.1-2.2c1.7-1.5,2.7-3.6,2.7-5.9c0-2.6-1.1-4.7-2.7-6
	c-1.6-1.4-4-2-7.9-2c-21.1-0.7-47.4,0.6-47.4-27.9c0-13.1,8.7-26.8,32.2-26.8h44.8v-17.9h-41.6c-12.6,0-21.7,2.9-28.1,7.4v-7.4
	h-61.5c-9.8,0-21.4,2.3-26.9,7.4v-7.4h-110v7.4c-8.7-6-23.5-7.4-30.3-7.4h-72.5v7.4c-6.9-6.4-22.3-7.4-31.7-7.4h-81.1l-18.6,19.2
	l-17.4-19.2h-121v125.7H278l19.1-19.6l18,19.6l73.3,0.1v-29.6h7.2c9.7,0.1,21.2-0.2,31.3-4.4v33.9h60.4v-32.8h2.9
	c3.7,0,4.1,0.1,4.1,3.7v29.1h183.6c11.7,0,23.8-2.9,30.6-8v8h58.2c12.1,0,24-1.6,33-5.8V256.1L799.7,256.1z M435.6,207.7
	c0,25-19.5,30.2-39.1,30.2h-28v30.2h-43.7l-27.7-29.8l-28.8,29.8h-89V178h90.4l27.7,29.5L326,178h71.8
	C415.6,178,435.6,182.7,435.6,207.7z M257,249.2h-55.3v-17.9H251v-18.4h-49.3v-16.4H258l24.6,26.3L257,249.2z M346,259.5l-34.5-36.7
	l34.5-35.5V259.5z M397,219.4h-29v-22.9h29.3c8.1,0,13.7,3.2,13.7,11S405.7,219.4,397,219.4z M549.2,178h75v18.6h-52.6V213h51.3
	v18.4h-51.3v17.9l52.6,0.1v18.7h-75V178L549.2,178z M520.4,226.2c5,1.8,9.1,4.9,11,7.6c3.2,4.4,3.6,8.5,3.7,16.4v17.9h-22.6v-11.3
	c0-5.4,0.5-13.4-3.6-17.6c-3.3-3.2-8.3-4-16.5-4h-24v32.9h-22.6V178h51.9c11.4,0,19.7,0.5,27,4.3c7.1,4.1,11.6,9.7,11.6,20
	C536.3,216.6,526.3,224,520.4,226.2L520.4,226.2z M507.7,214.8c-3,1.7-6.7,1.9-11.1,1.9h-27.3v-20.2H497c4,0,8,0.1,10.7,1.6
	c2.9,1.5,4.7,4.3,4.7,8.1C512.3,210.1,510.6,213.2,507.7,214.8L507.7,214.8z M710.5,220.6c4.4,4.3,6.7,9.8,6.7,19.1
	c0,19.4-12.6,28.4-35.3,28.4h-43.8v-19.3h43.6c4.3,0,7.3-0.5,9.2-2.2c1.5-1.4,2.7-3.4,2.7-5.9c0-2.6-1.2-4.7-2.7-6
	c-1.7-1.4-4.1-2-8-2c-21-0.7-47.3,0.6-47.3-27.9c0-13.1,8.6-26.8,32.1-26.8h45.1v19.2h-41.2c-4.1,0-6.7,0.1-9,1.6
	c-2.5,1.5-3.4,3.6-3.4,6.5c0,3.4,2.1,5.7,4.9,6.7c2.4,0.8,4.9,1,8.7,1l12.1,0.3C697.1,213.6,705.5,215.6,710.5,220.6L710.5,220.6z
	 M799.7,196.5h-41c-4.1,0-6.8,0.1-9.1,1.6c-2.4,1.5-3.3,3.6-3.3,6.5c0,3.4,2,5.7,4.9,6.7c2.4,0.8,4.9,1,8.7,1l12.2,0.3
	c12.3,0.3,20.5,2.3,25.5,7.3c0.9,0.7,1.5,1.5,2.1,2.2L799.7,196.5L799.7,196.5L799.7,196.5z"/>
</svg>
