<?xml version="1.0" encoding="utf-8"?>
<!-- Generator: Adobe Illustrator 23.0.6, SVG Export Plug-In . SVG Version: 6.00 Build 0)  -->
<svg version="1.1" id="Layer_1" xmlns="http://www.w3.org/2000/svg" xmlns:xlink="http://www.w3.org/1999/xlink" x="0px" y="0px"
	 viewBox="0 0 800 133.1" style="enable-background:new 0 0 800 133.1;" xml:space="preserve">
<style type="text/css">
	.st0{fill:#FFFFFF;}
</style>
<title>discover</title>
<path class="st0" d="M78.8,66.9c0,0,0-0.1,0-0.2c0-12.4-5.2-23.5-13.7-31.4l0,0c-7.9-6.5-18-10.6-29.1-10.6c-1.6,0-3.2,0.1-4.8,0.2
	h0.2h-6.6v83.9h6.6c1.4,0.1,3,0.2,4.5,0.2c11.1,0,21.3-3.8,29.5-10.4l-0.1,0.1c8.4-8,13.7-19.2,13.7-31.7
	C78.9,67,78.9,66.9,78.8,66.9L78.8,66.9L78.8,66.9z M104.3,67c-0.1,19.5-9,36.9-22.8,48.6l-0.1,0.1c-11.3,9.2-25.8,14.7-41.6,14.7
	c-1.3,0-2.6,0-3.8-0.1h0.2H0V3.5h36.3c1.5-0.1,3.3-0.2,5.1-0.2c34.8,0,63,28.2,63,63C104.4,66.6,104.4,66.8,104.3,67L104.3,67
	L104.3,67z M753.9,42.4c0-12.4-8.3-18.8-23.8-18.8h-7.6V62h7.3C745.6,62,753.9,55.1,753.9,42.4z M750.5,76.9l39.9,53.5H760
	l-34.3-50.9h-3.2v50.9h-24.8V3.6h36.7c28.5,0,44.8,13.7,44.8,37.5c0,0.7,0.1,1.7,0.1,2.6c0,17-12.5,30.9-28.8,33.4L750.5,76.9
	L750.5,76.9z M791.5,8.8c0-1-0.7-1.5-2-1.5H789v2.9h0.4C790.7,10.1,791.4,9.7,791.5,8.8L791.5,8.8z M791.6,11.7l3.6,4.6H792
	l-3.1-4.3v4.3h-2.7V5.2h3.6c2.7,0,4.2,1.2,4.2,3.4c0,0.1,0,0.1,0,0.1C794,10.2,793,11.5,791.6,11.7L791.6,11.7L791.6,11.7z
	 M611.3,130.3h70.1v-21.4h-45.4V74.6h43.8V53.1h-43.8V25h45.4V3.5h-70.1V130.3z M539.1,88.8L505.3,3.6h-27l53.9,130h13.3L600.2,3.5
	h-26.8L539.1,88.8z M115.7,130.3h24.8V3.5h-24.8V130.3z M798.1,10.8c-0.1-4.3-3.5-7.7-7.9-7.7c-4.4,0-7.9,3.5-7.9,7.8
	c0,4.4,3.5,7.9,7.9,7.9c2.2,0,4.3-1,5.7-2.3l0,0c1.4-1.4,2.2-3.3,2.2-5.4C798.1,10.9,798.1,10.9,798.1,10.8L798.1,10.8L798.1,10.8z
	 M800,10.8C800,10.8,800,10.9,800,10.8c0,5.4-4.4,9.7-9.6,9.7c-5.3,0-9.6-4.3-9.6-9.6c0,0,0,0,0-0.1l0,0v-0.1c0-0.1,0-0.3,0-0.5
	c0-5.3,4.4-9.7,9.6-9.7c5.3,0,9.6,4.3,9.6,9.6C800,10.4,800,10.6,800,10.8L800,10.8L800,10.8z M200.8,52.3
	c-14.8-5.4-19.2-9.1-19.2-16c0-8,7.8-14.1,18.5-14.1c8.1,0.2,15.4,4.2,19.8,10.1h0.1l12.9-17C223.1,6.6,210.2,1.3,196,1.3
	c-0.1,0-0.2,0-0.3,0l0,0c-0.7,0-1.5-0.1-2.3-0.1c-20.3,0-36.7,16.2-37.2,36.3l0,0c0,17.5,8,26.5,31.3,34.8
	c6.6,2.1,12.3,4.6,17.6,7.5l-0.5-0.3c4.5,2.7,7.4,7.5,7.4,13v0.1l0,0c-0.1,9.9-8.1,17.9-18,17.9c-0.4,0-0.7,0-1.2,0h0.1
	c-0.1,0-0.3,0-0.4,0c-11.6,0-21.8-6.8-26.4-16.8l-0.1-0.2l-16,15.4c8.8,14.5,24.4,24.1,42.4,24.1c0.5,0,1.1,0,1.6,0h-0.1
	c0.9,0.1,1.8,0.1,2.9,0.1c22.5,0,40.9-18.4,40.9-40.9c0-0.3,0-0.6,0-1v0.1C237.3,71.6,229,62.5,200.8,52.3L200.8,52.3z M312.6,0.7
	c-0.2,0-0.5,0-0.9,0c-36.7,0-66.5,29.7-66.7,66.4l0,0c0,0.1,0,0.3,0,0.5c0,36.3,29.3,65.6,65.6,65.6c0.4,0,1,0,1.4,0l0,0l0,0
	c11.3,0,22-2.7,31.4-7.6l-0.4,0.2V96.8c-7.3,8.4-17.9,13.9-29.8,13.9l0,0c-0.3,0-0.7,0-1.2,0c-22.9,0-41.4-18.6-41.4-41.4
	c0-0.9,0-1.6,0.1-2.5v0.1c0-0.4,0-1,0-1.4c0-23,18.5-41.7,41.4-42.2l0,0c12.4,0.1,23.5,5.5,30.9,14.2l0,0V8.4
	c-8.8-4.9-19.2-7.8-30.4-7.8C312.7,0.7,312.7,0.7,312.6,0.7L312.6,0.7L312.6,0.7z M486,67.4c0,37.2-30.2,67.4-67.4,67.4
	s-67.4-30.2-67.4-67.4S381.3,0,418.4,0h0.1l0,0C455.8,0,486,30.2,486,67.4L486,67.4L486,67.4z"/>
</svg>
