<?xml version="1.0" encoding="utf-8"?>
<!-- Generator: Adobe Illustrator 23.0.6, SVG Export Plug-In . SVG Version: 6.00 Build 0)  -->
<svg version="1.1" id="Layer_1" xmlns="http://www.w3.org/2000/svg" xmlns:xlink="http://www.w3.org/1999/xlink" x="0px" y="0px"
	 viewBox="0 0 1018 584.1" style="enable-background:new 0 0 1018 584.1;" xml:space="preserve">
<style type="text/css">
	.st0{fill:#FFFFFF;}
	.st1{fill:#FF5F00;}
	.st2{fill:#EB001B;}
	.st3{fill:#F79E1B;}
</style>
<title>mastercard</title>
<g>
	<path class="st0" d="M259.9,582.7v-41.2c0-15.8-9.6-26.1-25.4-26.1c-8.3,0-17.2,2.8-23.3,11.6c-4.8-7.6-11.6-11.6-22-11.6
		c-7.8-0.3-15.3,3.3-19.9,9.6v-8.3h-13v65.9h13V545c0-11.6,6.9-17.2,16.5-17.2s15.1,6.2,15.1,17.2v37.8h13V545
		c0-11.6,6.9-17.2,16.5-17.2s15.1,6.2,15.1,17.2v37.8L259.9,582.7L259.9,582.7z M474.1,517.5h-24v-19.9h-13v19.9h-13.7v11.6h13.7v31
		c0,15.1,5.5,24,22,24c6.2-0.1,12.4-1.8,17.8-4.8l-4.1-11.6c-3.7,2.3-8,3.5-12.4,3.4c-6.9,0-10.3-4.1-10.3-11v-31.6h24V517.5
		L474.1,517.5z M596.4,515.4c-7.2-0.2-14,3.5-17.9,9.6v-8.3h-13v65.9h13v-37c0-11,5.5-17.9,14.4-17.9c3,0.1,6,0.6,8.9,1.4l4.1-12.4
		C602.8,516,599.6,515.5,596.4,515.4L596.4,515.4z M411.6,522.3c-6.9-4.8-16.5-6.9-26.8-6.9c-16.5,0-26.8,7.6-26.8,20.6
		c0,11,7.6,17.2,22,19.2l6.9,0.7c7.6,1.4,12.4,4.1,12.4,7.6c0,4.8-5.5,8.3-15.8,8.3c-7.9,0.2-15.6-2.2-22-6.9l-6.9,10.3
		c9.6,6.9,21.3,8.3,28.2,8.3c19.2,0,29.5-8.9,29.5-21.3c0-11.6-8.3-17.2-22.7-19.2l-6.9-0.7c-6.2-0.7-11.6-2.8-11.6-6.9
		c0-4.8,5.5-8.3,13-8.3c8.3,0,16.5,3.4,20.6,5.5L411.6,522.3z M610.8,549.8c0,19.9,13,34.3,34.3,34.3c9.6,0,16.5-2.1,23.3-7.6
		l-6.9-10.3c-4.9,3.9-10.9,6.1-17.2,6.2c-11.6,0-20.6-8.9-20.6-22s8.9-21.9,20.6-21.9c6.3,0.1,12.3,2.2,17.2,6.2l6.9-10.3
		c-6.9-5.5-13.7-7.6-23.3-7.6C624.5,515.5,610.8,529.9,610.8,549.8L610.8,549.8L610.8,549.8z M518.8,515.4
		c-19.2,0-32.3,13.7-32.3,34.3s13.7,34.3,33.6,34.3c9.7,0.2,19.1-2.9,26.8-8.9l-6.9-9.6c-5.5,4.3-12.3,6.7-19.2,6.9
		c-8.9,0-18.5-5.5-19.9-17.2h48.8v-5.5C549.7,529.2,537.3,515.4,518.8,515.4L518.8,515.4L518.8,515.4z M518.1,527.8
		c9.6,0,16.5,6.2,17.2,16.5h-35.7C501.6,534.7,507.8,527.8,518.1,527.8L518.1,527.8z M340.2,549.8v-33h-13v8.3
		c-4.8-6.2-11.6-9.6-21.3-9.6c-18.5,0-32.3,14.4-32.3,34.3c0,19.9,13.7,34.3,32.3,34.3c9.6,0,16.5-3.4,21.3-9.6v8.3h13V549.8z
		 M287.4,549.8c0-12.4,7.6-22,20.6-22c12.4,0,19.9,9.6,19.9,22c0,13-8.3,22-19.9,22C294.9,572.4,287.4,562.1,287.4,549.8
		L287.4,549.8z M794.8,515.4c-7.2-0.2-14,3.5-17.9,9.6v-8.3h-13v65.9h13v-37c0-11,5.5-17.9,14.4-17.9c3,0.1,6,0.6,8.9,1.4l4.1-12.4
		C801.3,516,798.1,515.5,794.8,515.4L794.8,515.4z M744,549.8v-33h-13v8.3c-4.8-6.2-11.6-9.6-21.3-9.6c-18.5,0-32.3,14.4-32.3,34.3
		c0,19.9,13.7,34.3,32.3,34.3c9.6,0,16.5-3.4,21.3-9.6v8.3h13V549.8z M691.2,549.8c0-12.4,7.6-22,20.6-22c12.4,0,19.9,9.6,19.9,22
		c0,13-8.3,22-19.9,22C698.7,572.4,691.2,562.1,691.2,549.8z M876.6,549.8v-59.1h-13V525c-4.8-6.2-11.6-9.6-21.3-9.6
		c-18.5,0-32.3,14.4-32.3,34.3c0,19.9,13.7,34.3,32.3,34.3c9.6,0,16.5-3.4,21.3-9.6v8.3h13V549.8z M823.7,549.8
		c0-12.4,7.6-22,20.6-22c12.4,0,19.9,9.6,19.9,22c0,13-8.3,22-19.9,22C831.2,572.4,823.7,562.1,823.7,549.8L823.7,549.8z"/>
	<g>
		<rect x="396.5" y="52.9" class="st1" width="238.3" height="388.7"/>
		<path class="st2" d="M420.6,247.2c0-75.7,34.7-147.3,94.1-194.3C407.3-31.5,251.9-12.9,167.5,94.4S101.7,357.1,209,441.5
			c89.7,70.5,215.9,70.5,305.6,0C455.3,394.6,420.6,323,420.6,247.2z"/>
		<path class="st3" d="M915,247.2c0.1,136.4-110.4,247-246.8,247.1c-55.4,0-109.2-18.6-152.8-52.8c107.3-84.9,125.5-240.7,40.7-348
			c-11.9-15.1-25.6-28.7-40.7-40.7c107.2-84.3,262.5-65.7,346.8,41.5C896.5,138,915.1,191.8,915,247.2z"/>
	</g>
</g>
</svg>
