<?xml version="1.0" encoding="utf-8"?>
<!-- Generator: Adobe Illustrator 23.0.6, SVG Export Plug-In . SVG Version: 6.00 Build 0)  -->
<svg version="1.1" id="Layer_1" xmlns="http://www.w3.org/2000/svg" xmlns:xlink="http://www.w3.org/1999/xlink" x="0px" y="0px"
	 viewBox="0 0 800 260" style="enable-background:new 0 0 800 260;" xml:space="preserve">
<style type="text/css">
	.st0{fill:#37A72E;}
	.st1{fill:url(#Combined-Shape_4_);}
</style>
<g id="Page-1">
	<g id="Artboard" transform="translate(-91.000000, -154.000000)">
		<g id="Group" transform="translate(91.000000, 154.000000)">
			<path id="Combined-Shape" class="st0" d="M558.1,125.3V236h61.5v-65.6h69.7c29.3-0.2,54.3-19,63.7-45.1H558.1z"/>
			
				<linearGradient id="Combined-Shape_4_" gradientUnits="userSpaceOnUse" x1="551.4864" y1="138.0883" x2="552.4866" y2="138.0883" gradientTransform="matrix(206.9367 0 0 81.0256 -113572.9531 -11114.2051)">
				<stop  offset="0" style="stop-color:#00A0E5"/>
				<stop  offset="1" style="stop-color:#0077C3"/>
			</linearGradient>
			<path id="Combined-Shape_1_" class="st1" d="M549.8,34c3.6,45.2,46.5,81,98.8,81c0.2,0,107,0,107,0c0.8-4.1,1.2-8.4,1.2-12.8
				c0-37.5-30.3-67.9-67.7-68.2H549.8z"/>
			<path id="Combined-Shape_2_" class="st0" d="M458.8,113.9v-0.1V113.9c0.7-1.2,1.8-1.9,3.3-1.9c2.1,0,3.6,1.6,3.7,3.6l0,0V235
				h61.5V34h-61.5c-7.8,0.3-16.6,5.9-19.9,13l-48.9,105c-0.1,0.4-0.3,0.8-0.5,1.2l0,0l0,0c-0.7,1-1.9,1.7-3.4,1.7
				c-2.3,0-4.1-1.8-4.1-4.1V34h-61.5v201h61.5l0,0c7.7-0.4,16.3-6.1,19.6-13l50.3-107.8C458.7,114.1,458.8,114,458.8,113.9
				L458.8,113.9z"/>
			<path id="Combined-Shape_3_" class="st0" d="M229,117.4L193,235h-44.3l-35.9-117.7c-0.3-1.8-1.9-3.3-4-3.3c-2.3,0-4,1.8-4,4l0,0
				v116.9H43.3v-201h52.8h15.7c11.3,0,23.2,8.8,26.5,19.6l29.9,97.9c1.5,4.9,3.9,4.8,5.4,0l29.9-97.9c3.3-10.9,15.2-19.6,26.5-19.6
				h15.7h52.8v201H237V118c0,0,0,0,0-0.1c0-2.3-1.8-4-4-4C231,114,229.3,115.4,229,117.4L229,117.4z"/>
		</g>
	</g>
</g>
</svg>
