<?xml version="1.0" encoding="utf-8"?>
<!-- Generator: Adobe Illustrator 23.0.6, SVG Export Plug-In . SVG Version: 6.00 Build 0)  -->
<svg version="1.1" id="Layer_1" xmlns="http://www.w3.org/2000/svg" xmlns:xlink="http://www.w3.org/1999/xlink" x="0px" y="0px"
	 viewBox="0 0 800 259.5" style="enable-background:new 0 0 800 259.5;" xml:space="preserve">
<style type="text/css">
	.st0{fill:#00A1DD;}
	.st1{fill:#E6A540;}
	.st2{fill:none;}
</style>
<g>
	<path class="st0" d="M346.8,255.3h-65.2L322.3,4.5h65.2L346.8,255.3z M226.6,4.5l-62.3,172.4l-7.4-37.2l0,0L135,27.1
		c0,0-2.6-22.6-31-22.6H1.2L0,8.8c0,0,31.5,6.5,68.3,28.6L125,255.3h68L296.9,4.5L226.6,4.5L226.6,4.5z M740.1,255.3H800L747.7,4.5
		h-52.5c-24.2,0-30.2,18.7-30.2,18.7l-97.3,232.1h68.1l13.7-37.2h82.9L740.1,255.3L740.1,255.3z M668.2,166.5l34.3-93.9l19.3,93.9
		H668.2z M572.9,64.8l9.3-53.8c0,0-28.8-10.9-58.7-10.9C491,0,414.1,14.1,414.1,83.1c0,64.8,90.3,65.6,90.3,99.6s-81,27.9-107.7,6.4
		l-9.7,56.3c0,0,29.1,14.1,73.7,14.1s111.7-23.1,111.7-85.8c0-65.2-91.1-71.3-91.1-99.6C481.4,45.8,545,49.4,572.9,64.8L572.9,64.8z
		"/>
</g>
<path class="st1" d="M157,139.9L135,27.1c0,0-2.6-22.6-31-22.6H1.2L0,8.8c0,0,49.4,10.2,96.9,48.6C142.2,94.1,157,139.9,157,139.9z"
	/>
<path class="st2" d="M0-270.2h800v800H0V-270.2z"/>
</svg>
